Ostrich_Running_Kinematics
version=1
nRows=16
nColumns=28
inDegrees=no
endheader
time	/jointset/pelvis/pelvis_tilt/value	/jointset/pelvis/pelvis_list/value	/jointset/pelvis/pelvis_rotation/value	/jointset/pelvis/pelvis_tx/value	/jointset/pelvis/pelvis_ty/value	/jointset/pelvis/pelvis_tz/value	/jointset/R_hip/R_hip_extension/value	/jointset/R_hip/R_hip_abduction/value	/jointset/R_hip/R_hip_rotation/value	/jointset/knee/R_knee_angle/value	/jointset/knee/R_knee_varus/value	/jointset/knee/R_knee_rotation/value	/jointset/R_ankle/R_ankle_angle/value	/jointset/R_ankle/R_ankle_abduction/value	/jointset/R_ankle/R_ankle_rotation/value	/jointset/R_mtp/R_mtp_angle/value	/jointset/R_mtp/R_mtp_abduction/value	/jointset/R_mtp/R_mtp_rotation/value	/jointset/L_hip/L_hip_extension/value	/jointset/L_hip/L_hip_abduction/value	/jointset/L_hip/L_hip_rotation/value	/jointset/knee_0/L_knee_angle/value	/jointset/knee_0/L_knee_varus/value	/jointset/knee_0/L_knee_rotation/value	/jointset/L_ankle/L_ankle_angle/value	/jointset/L_ankle/L_ankle_abduction/value	/jointset/L_mtp/L_mtp_angle/value
      0.53700000	      0.13884199	      0.14846818	      0.00255886	      1.91185650	      1.04154042	     -0.80092882	      0.92809279	     -0.22229561	     -0.40557961	     -1.93267289	     -0.30541517	     -0.34488753	      0.73796360	      0.13416835	     -0.24544216	     -2.03205194	     -0.03264219	     -0.01573247	      1.03177233	     -0.21603685	     -0.53537277	     -1.23877885	     -0.23245691	     -0.20507968	      0.68513598	      0.34052072	     -1.39834383
      0.54100000	      0.13686244	      0.15110013	      0.00306982	      1.92605486	      1.04153310	     -0.80014364	      0.93020464	     -0.22381753	     -0.40084279	     -1.94677515	     -0.30205017	     -0.34504810	      0.76793440	      0.13477328	     -0.25243395	     -2.08158439	     -0.05015099	     -0.01717146	      1.03553177	     -0.22112274	     -0.53018914	     -1.23414675	     -0.22816689	     -0.20310397	      0.65270427	      0.33442603	     -1.37477142
      0.54500000	      0.13510594	      0.15371115	      0.00357723	      1.94021950	      1.04129766	     -0.79937460	      0.93228507	     -0.22533946	     -0.39613738	     -1.96087741	     -0.29864329	     -0.34489451	      0.79847068	      0.13500645	     -0.25958282	     -2.13017435	     -0.06701366	     -0.01853714	      1.03913413	     -0.22617722	     -0.52478560	     -1.23019532	     -0.22390829	     -0.20114920	      0.62116268	      0.32780774	     -1.35177496
      0.54900000	      0.13365243	      0.15628027	      0.00407974	      1.95434078	      1.04076174	     -0.79862796	      0.93425380	     -0.22683346	     -0.39155764	     -1.97511930	     -0.29527829	     -0.34432205	      0.82969113	      0.13472580	     -0.26688528	     -2.17680955	     -0.08282355	     -0.01980216	      1.04249912	     -0.23113395	     -0.51911677	     -1.22712354	     -0.21971950	     -0.19925028	      0.59089169	      0.32060302	     -1.32961626
      0.55300000	      0.13243454	      0.15883892	      0.00457754	      1.96843074	      1.04000394	     -0.79789884	      0.93605498	     -0.22830652	     -0.38710356	     -1.98925647	     -0.29198660	     -0.34344589	      0.86136187	      0.13405874	     -0.27424009	     -2.22197867	     -0.09774751	     -0.02099282	      1.04567562	     -0.23599644	     -0.51333275	     -1.22473244	     -0.21561449	     -0.19737230	      0.56164695	      0.31301084	     -1.30813824
      0.55700000	      0.13145785	      0.16137314	      0.00507064	      1.98248962	      1.03902762	     -0.79718756	      0.93766767	     -0.22973769	     -0.38281005	     -2.00328892	     -0.28881010	     -0.34228699	      0.89344801	      0.13301154	     -0.28162633	     -2.26540246	     -0.11174855	     -0.02211123	      1.04866363	     -0.24074374	     -0.50748241	     -1.22301504	     -0.21162117	     -0.19552924	      0.53344941	      0.30508006	     -1.28732693
      0.56100000	      0.13073075	      0.16386547	      0.00555905	      1.99651772	      1.03783642	     -0.79649450	      0.93906393	     -0.23111650	     -0.37872249	     -2.01721664	     -0.28579767	     -0.34086280	      0.92591811	      0.13159119	     -0.28900907	     -2.30694130	     -0.12480047	     -0.02316157	      1.05146663	     -0.24536188	     -0.50161112	     -1.22197831	     -0.20777098	     -0.19372107	      0.50632351	      0.29686654	     -1.26717187
      0.56500000	      0.13026439	      0.16629497	      0.00604285	      2.01051540	      1.03643426	     -0.79582010	      0.94020887	     -0.23244295	     -0.37489672	     -2.03103965	     -0.28300514	     -0.33918729	      0.95874426	      0.12980537	     -0.29633945	     -2.34659518	     -0.13688792	     -0.02415012	      1.05409160	     -0.24984388	     -0.49576077	     -1.22164321	     -0.20409880	     -0.19193386	      0.48029716	      0.28843311	     -1.24766607
      0.56900000	      0.13015828	      0.16858484	      0.00652065	      2.02447316	      1.03476130	     -0.79517130	      0.94100474	     -0.23368562	     -0.37151777	     -2.04444378	     -0.28056168	     -0.33721856	      0.99196137	      0.12755460	     -0.30351625	     -2.38345653	     -0.14769081	     -0.02506467	      1.05646525	     -0.25410249	     -0.49006402	     -1.22225757	     -0.20074777	     -0.19016060	      0.45582066	      0.27979024	     -1.22888633
      0.57300000	      0.13033072	      0.17072811	      0.00699448	      2.03840116	      1.04464874	     -0.79454218	      0.94154928	     -0.23486547	     -0.36853674	     -2.05774319	     -0.27844285	     -0.33510322	      1.02540886	      0.12497500	     -0.31052549	     -2.41832821	     -0.15755541	     -0.02593315	      1.05869229	     -0.25821448	     -0.48454529	     -1.22362590	     -0.19766901	     -0.18840829	      0.43250655	      0.27106360	     -1.21050452
      0.57700000	      0.13078660	      0.17269684	      0.00746509	      2.05230012	      1.04259410	     -0.79393298	      0.94184250	     -0.23597550	     -0.36599554	     -2.07079825	     -0.27667657	     -0.33285523	      1.05905183	      0.12208264	     -0.31732529	     -2.45107059	     -0.16651453	     -0.02675974	      1.06079367	     -0.26217289	     -0.47924647	     -1.22577615	     -0.19491139	     -0.18665598	      0.41037578	      0.26229506	     -1.19240894
      0.58100000	      0.13153080	      0.17448406	      0.00793343	      2.06617068	      1.03844125	     -0.79334400	      0.94188089	     -0.23701222	     -0.36393256	     -2.08360897	     -0.27528380	     -0.33050602	      1.09284838	      0.11889497	     -0.32387726	     -2.48168366	     -0.17460763	     -0.02754863	      1.06278334	     -0.26597771	     -0.47420596	     -1.22872925	     -0.19250982	     -0.18488971	      0.38943881	      0.25352653	     -1.17447045
      0.58500000	      0.13256823	      0.17610372	      0.00840062	      2.08001340	      1.03402459	     -0.79277560	      0.94165749	     -0.23797564	     -0.36238271	     -2.09631496	     -0.27427849	     -0.32810445	      1.12674966	      0.11543084	     -0.33014648	     -2.51030706	     -0.18188076	     -0.02830400	      1.06466830	     -0.26963592	     -0.46945866	     -1.23249916	     -0.19048523	     -0.18310249	      0.36969564	      0.24479988	     -1.15654243
      0.58900000	      0.13399940	      0.17722073	      0.00886711	      2.09382220	      1.03394545	     -0.79223536	      0.94111295	     -0.23886925	     -0.36154495	     -2.10860208	     -0.27383169	     -0.32568891	      1.16070678	      0.11164697	     -0.33596890	     -2.53613794	     -0.18817791	     -0.02901889	      1.06646948	     -0.27311261	     -0.46517213	     -1.23738608	     -0.18900520	     -0.18128735	      0.35157214	      0.23618494	     -1.13826534
      0.59300000	      0.13572483	      0.17823302	      0.00933559	      2.10760622	      1.03625772	     -0.79171636	      0.94033802	     -0.23970003	     -0.36125174	     -2.12057504	     -0.27381423	     -0.32333621	      1.19464297	      0.10766517	     -0.34142480	     -2.56008385	     -0.19385721	     -0.02970655	      1.06821830	     -0.27645317	     -0.46127307	     -1.24314218	     -0.18797545	     -0.17945126	      0.33465292	      0.22767471	     -1.11946465
      0.59700000	      0.13774313	      0.17893115	      0.00980781	      2.12136618	      1.03334616	     -0.79121896	      0.93933969	     -0.24046099	     -0.36151005	     -2.13216403	     -0.27421217	     -0.32108124	      1.22849537	      0.10351408	     -0.34647927	     -2.58221463	     -0.19899546	     -0.03036768	      1.06994966	     -0.27969250	     -0.45777543	     -1.24979537	     -0.18740996	     -0.17758027	      0.31892401	      0.21930411	     -1.09997282
